<svg xmlns="http://www.w3.org/2000/svg" viewBox="0 0 171.08 69.9"><defs><style>.cls-1{font-size:77.62px;fill:#fff;font-family:Bitsumishi;}.cls-2{fill:#087735;}</style></defs><g id="Layer_2" data-name="Layer 2"><g id="Layer_1-2" data-name="Layer 1"><text class="cls-1" transform="translate(58.38 58.8)">iza</text><path class="cls-2" d="M53.19,36.23,39.09,22.12,35.17,18.2a13.46,13.46,0,0,1-.68,6.16c-.14.37-.29.74-.45,1.1A12.84,12.84,0,0,1,33.17,27L45.53,39.4l0,6,0,5.74H7.69v-19h3.73l1.27,1.27,5.43,5.43,8.61,8.62H37.56l-12-12-4-4a13.24,13.24,0,0,0,4.83-3.09A13.49,13.49,0,0,0,29,24.46c.16-.36.31-.73.45-1.1a13.37,13.37,0,0,0-3.15-14,13.53,13.53,0,0,0-8.22-3.86H0V58.76H5l48.17,0V36.23ZM17.45,13.08a5.67,5.67,0,0,1,2.61,1,5.12,5.12,0,0,1,.82.67l0,0a5.72,5.72,0,0,1,0,8.09,5,5,0,0,1-3,1.57H7.68V13.07Z"/></g></g></svg>